<svg width="31" height="34" viewBox="0 0 31 34" fill="none" xmlns="http://www.w3.org/2000/svg">
<path d="M15.4961 7.5C17.4699 7.5 19.1332 9.25845 19.1309 11.5312V11.5322C19.1307 13.7989 17.4691 15.5625 15.4961 15.5625C13.5393 15.5625 11.8722 13.8021 11.8721 11.5322C11.8721 9.25798 13.5391 7.50003 15.4961 7.5Z" stroke="#A8A8A8"/>
<path d="M23.9775 11.4692C25.4982 11.4693 26.7928 12.8271 26.793 14.6021C26.793 16.3766 25.4988 17.7329 23.9775 17.7329C22.4696 17.7329 21.1694 16.3754 21.1729 14.603V14.6021C21.173 12.8263 22.4709 11.4692 23.9775 11.4692Z" stroke="#A8A8A8"/>
<path d="M21.7783 19.5H27.2305C27.5268 19.5001 27.8345 19.6591 28.084 19.9893C28.3334 20.3194 28.5017 20.7974 28.5 21.3447V27.5H20.5V21.3467C20.5 20.7989 20.6702 20.3207 20.9209 19.9902C21.1716 19.6597 21.48 19.5 21.7783 19.5Z" stroke="#A8A8A8"/>
<path d="M6.59717 11.4692C8.11518 11.4692 9.41146 12.8271 9.41162 14.6021C9.41162 16.3766 8.11577 17.7329 6.59717 17.7329C5.08861 17.7328 3.7915 16.3772 3.7915 14.6021C3.79167 12.8265 5.0892 11.4694 6.59717 11.4692Z" stroke="#A8A8A8"/>
<path d="M3.77246 19.5H9.23047C9.52587 19.5002 9.83332 19.6589 10.083 19.9893C10.3326 20.3196 10.5012 20.7981 10.5 21.3457V27.5H2.5V21.3467C2.5 20.7985 2.66909 20.3198 2.91895 19.9893C3.16883 19.6588 3.47621 19.5001 3.77246 19.5Z" stroke="#A8A8A8"/>
<path d="M11.5635 17.5723H19.4443C20.4761 17.5723 21.4315 18.5407 21.4277 19.8623V27.4277H9.57227V19.8643C9.57228 18.5415 10.5282 17.5723 11.5635 17.5723Z" fill="#202020" stroke="#A8A8A8" stroke-width="1.14464"/>
</svg>
