<svg width="98" height="174" viewBox="0 0 98 174" fill="none" xmlns="http://www.w3.org/2000/svg">
<path d="M76.5 0.5V8C76.5 12.1421 73.1421 15.5 69 15.5H28C23.8579 15.5 20.5 12.1421 20.5 8V0.5H76.5Z" fill="white" stroke="white"/>
<rect x="5" y="5" width="87" height="164" rx="14" stroke="white" stroke-width="10"/>
<path d="M97.4102 153C97.4102 163.493 88.9036 172 78.4102 172H19C8.5066 172 0 163.493 0 153V151H97.4102V153ZM39.3906 154.388C36.7717 154.388 34.6485 156.511 34.6484 159.13C34.6484 161.749 36.7717 163.872 39.3906 163.872H58.0186C60.6373 163.872 62.7598 161.749 62.7598 159.13C62.7597 156.511 60.6372 154.388 58.0186 154.388H39.3906Z" fill="white"/>
<path d="M77.7093 64.3205C77.7093 74.382 69.5529 82.5384 59.4914 82.5384C49.4299 82.5384 41.2734 74.382 41.2734 64.3205C41.2734 54.259 49.4299 46.1025 59.4914 46.1025C69.5529 46.1025 77.7093 54.259 77.7093 64.3205ZM51.3884 64.3205C51.3884 68.7957 55.0162 72.4235 59.4914 72.4235C63.9666 72.4235 67.5944 68.7957 67.5944 64.3205C67.5944 59.8453 63.9666 56.2175 59.4914 56.2175C55.0162 56.2175 51.3884 59.8453 51.3884 64.3205Z" fill="white"/>
<path d="M55.7734 42.6406C55.7734 42.0883 56.2212 41.6406 56.7734 41.6406H62.2093C62.7616 41.6406 63.2093 42.0883 63.2093 42.6406V46.8458H55.7734V42.6406Z" fill="white"/>
<path d="M49.6726 84.4244C49.34 84.8653 48.7129 84.953 48.272 84.6204L43.9327 81.3464C43.4918 81.0137 43.4041 80.3867 43.7367 79.9458L46.2694 76.589L52.2053 81.0675L49.6726 84.4244Z" fill="white"/>
<path d="M39.5921 74.5258C39.0644 74.689 38.5044 74.3936 38.3413 73.8659L36.7352 68.6727C36.572 68.1451 36.8675 67.5851 37.3951 67.4219L41.4125 66.1795L43.6095 73.2834L39.5921 74.5258Z" fill="white"/>
<path d="M37.3819 60.8902C36.8603 60.7087 36.5847 60.1387 36.7662 59.6171L38.5529 54.4832C38.7344 53.9616 39.3044 53.6859 39.826 53.8675L43.7975 55.2496L41.3534 62.2724L37.3819 60.8902Z" fill="white"/>
<path d="M44.1552 48.8867C43.8085 48.4569 43.8758 47.8273 44.3056 47.4805L48.5363 44.0673C48.9662 43.7205 49.5958 43.7878 49.9425 44.2177L52.9324 47.9236L47.1451 52.5926L44.1552 48.8867Z" fill="white"/>
<path d="M75.5052 49.0565C75.8302 48.61 75.7318 47.9845 75.2853 47.6595L70.8906 44.4602C70.4441 44.1351 69.8186 44.2336 69.4936 44.6801L67.0186 48.0797L73.0302 52.4562L75.5052 49.0565Z" fill="white"/>
<path d="M55.8462 86.4289C55.8556 86.9811 56.3109 87.4211 56.8631 87.4116L62.2982 87.3187C62.8504 87.3093 63.2904 86.854 63.281 86.3018L63.2091 82.0972L55.7743 82.2243L55.8462 86.4289Z" fill="white"/>
<path d="M69.8195 84.359C70.15 84.8015 70.7767 84.8922 71.2191 84.5617L75.574 81.3084C76.0165 80.9779 76.1072 80.3513 75.7767 79.9088L72.8754 76.025L66.9182 80.4752L69.8195 84.359Z" fill="white"/>
<path d="M79.6289 74.6327C80.1575 74.793 80.7158 74.4944 80.8761 73.9659L82.4532 68.7638C82.6134 68.2352 82.3148 67.6769 81.7863 67.5167L77.1965 66.1252L75.0392 73.2413L79.6289 74.6327Z" fill="white"/>
<path d="M81.2218 60.9442C81.7551 60.8008 82.0712 60.2522 81.9278 59.7189L80.5164 54.4694C80.373 53.9361 79.8244 53.62 79.291 53.7634L74.6927 54.9998L76.6235 62.1806L81.2218 60.9442Z" fill="white"/>
<path d="M46.8715 90.9846C49.2776 98.163 45.4089 105.933 38.2305 108.339C31.0521 110.745 23.2823 106.876 20.8762 99.6978C18.4701 92.5194 22.3388 84.7497 29.5172 82.3436C36.6956 79.9374 44.4654 83.8062 46.8715 90.9846ZM26.2985 97.8803C27.7009 102.064 32.2292 104.319 36.413 102.916C40.5967 101.514 42.8514 96.9858 41.4491 92.8021C40.0468 88.6183 35.5184 86.3636 31.3347 87.7659C27.151 89.1682 24.8962 93.6966 26.2985 97.8803Z" fill="white"/>
<path d="M24.2249 82.2417C24.0014 81.7366 24.2298 81.146 24.7348 80.9226L28.4595 79.2748C28.9646 79.0514 29.5551 79.2797 29.7786 79.7848L30.8777 82.2694L25.324 84.7263L24.2249 82.2417Z" fill="white"/>
<path d="M30.6673 110.915C30.4649 111.429 29.8842 111.682 29.3704 111.479L25.6919 110.03C25.1781 109.828 24.9256 109.247 25.128 108.733L26.3064 105.742L31.8457 107.924L30.6673 110.915Z" fill="white"/>
<path d="M20.3299 104.393C19.8176 104.599 19.2351 104.351 19.0287 103.839L17.5208 100.095C17.3144 99.5827 17.5624 99.0001 18.0747 98.7938L20.9965 97.617L23.2517 103.216L20.3299 104.393Z" fill="white"/>
<path d="M17.7894 92.619C17.2671 92.4395 16.9893 91.8705 17.1688 91.3483L18.4867 87.5146C18.6662 86.9923 19.2351 86.7144 19.7574 86.894L22.5331 87.8481L20.5651 93.5732L17.7894 92.619Z" fill="white"/>
<path d="M41.8053 81.872C42.0142 81.3607 41.7692 80.7769 41.2579 80.568L37.3453 78.969C36.8341 78.7601 36.2503 79.0052 36.0413 79.5164L34.924 82.2505L40.688 84.6061L41.8053 81.872Z" fill="white"/>
<path d="M37.1186 110.539C37.3249 111.052 37.9075 111.3 38.4198 111.093L42.0308 109.639C42.543 109.432 42.7911 108.85 42.5847 108.338L41.4872 105.613L36.021 107.814L37.1186 110.539Z" fill="white"/>
<path d="M46.9027 103.47C47.4181 103.668 47.9968 103.411 48.1952 102.896L49.6119 99.2161C49.8103 98.7007 49.5533 98.122 49.0379 97.9236L45.8761 96.7064L43.7409 102.253L46.9027 103.47Z" fill="white"/>
<path d="M48.8148 91.5572C49.3184 91.3304 49.5427 90.7383 49.3158 90.2347L47.6717 86.585C47.4448 86.0814 46.8527 85.8571 46.3492 86.084L43.5098 87.3631L45.9754 92.8363L48.8148 91.5572Z" fill="white"/>
<path d="M53.5176 109.422C50.6535 105.641 51.3966 100.254 55.1772 97.3903C58.9579 94.5262 64.3446 95.2693 67.2087 99.05C70.0727 102.831 69.3297 108.217 65.549 111.081C61.7683 113.945 56.3816 113.202 53.5176 109.422ZM64.0585 101.436C62.5124 99.3955 59.6046 98.9944 57.5637 100.54C55.5228 102.087 55.1217 104.994 56.6677 107.035C58.2138 109.076 61.1216 109.477 63.1625 107.931C65.2034 106.385 65.6046 103.477 64.0585 101.436Z" fill="white"/>
<path d="M68.3325 109.924C68.7055 110.331 68.6776 110.963 68.2703 111.336L66.7202 112.756C66.3128 113.129 65.6803 113.101 65.3073 112.694L64.4101 111.714L67.4353 108.944L68.3325 109.924Z" fill="white"/>
<path d="M60.6511 94.1526C60.8071 93.6228 61.3631 93.3198 61.8929 93.4758L64.2599 94.1728C64.7897 94.3288 65.0928 94.8848 64.9368 95.4145L64.4734 96.9884L60.1877 95.7265L60.6511 94.1526Z" fill="white"/>
<path d="M55.229 112.87C55.081 113.402 55.3923 113.953 55.9243 114.101L58.3591 114.779C58.8912 114.927 59.4425 114.615 59.5906 114.083L60.0304 112.503L55.6688 111.289L55.229 112.87Z" fill="white"/>
<path d="M69.2728 99.649C69.8082 99.5133 70.3522 99.8373 70.4878 100.373L71.0546 102.609C71.1903 103.144 70.8662 103.688 70.3309 103.824L68.7801 104.217L67.7221 100.042L69.2728 99.649Z" fill="white"/>
<path d="M50.4593 104.352C49.923 104.484 49.5952 105.026 49.7272 105.562L50.2768 107.796C50.4088 108.332 50.9505 108.66 51.4868 108.528L53.0403 108.146L52.0128 103.97L50.4593 104.352Z" fill="white"/>
<path d="M55.2848 95.7376C54.901 95.3405 54.2679 95.3297 53.8708 95.7135L52.0382 97.4845C51.641 97.8683 51.6302 98.5014 52.014 98.8986L53.0333 99.9533L56.3041 96.7924L55.2848 95.7376Z" fill="white"/>
</svg>
