<svg width="164" height="172" viewBox="0 0 164 172" fill="none" xmlns="http://www.w3.org/2000/svg">
<path d="M98 0C102.418 6.44256e-08 106 3.58172 106 8V127.931C106 132.349 102.418 135.931 98 135.931H8C3.58172 135.931 0 132.349 0 127.931V8C4.30694e-06 3.58173 3.58172 6.44257e-08 8 0H98ZM10.7324 4.88477C7.12432 4.88477 4.19923 7.9461 4.19922 11.7227C4.19922 15.4992 7.12432 18.5605 10.7324 18.5605C14.3405 18.5605 17.2656 15.4992 17.2656 11.7227C17.2656 7.94615 14.3405 4.88485 10.7324 4.88477ZM28.002 4.88477C24.3939 4.88477 21.4688 7.9461 21.4688 11.7227C21.4688 15.4992 24.3938 18.5605 28.002 18.5605C31.61 18.5605 34.5352 15.4992 34.5352 11.7227C34.5351 7.94615 31.61 4.88485 28.002 4.88477Z" fill="white"/>
<mask id="path-2-outside-1_255_114" maskUnits="userSpaceOnUse" x="13.2031" y="20" width="122" height="152" fill="black">
<rect fill="white" x="13.2031" y="20" width="122" height="152"/>
<path d="M24.2031 39C24.2031 34.5817 27.7848 31 32.2031 31H127.203C131.621 31 135.203 34.5817 135.203 39V164C135.203 168.418 131.621 172 127.203 172H32.2031C27.7848 172 24.2031 168.418 24.2031 164V39Z"/>
</mask>
<path d="M24.2031 39C24.2031 34.5817 27.7848 31 32.2031 31H127.203C131.621 31 135.203 34.5817 135.203 39V164C135.203 168.418 131.621 172 127.203 172H32.2031C27.7848 172 24.2031 168.418 24.2031 164V39Z" fill="white"/>
<path d="M13.2031 39C13.2031 28.5066 21.7097 20 32.2031 20H116.203C126.697 20 135.203 28.5066 135.203 39V42C135.203 42 131.621 42 127.203 42H35.2031L13.2031 39ZM135.203 172H24.2031H135.203ZM32.2031 172C21.7097 172 13.2031 163.493 13.2031 153V39C13.2031 28.5066 21.7097 20 32.2031 20L35.2031 42V164C35.2031 168.418 35.2031 172 35.2031 172H32.2031ZM135.203 31V172V31Z" fill="black" mask="url(#path-2-outside-1_255_114)"/>
<circle cx="55.3689" cy="43.6199" r="7.29082" fill="black"/>
<circle cx="36.0994" cy="43.6199" r="7.29082" fill="black"/>
<rect x="24.125" y="56" width="111" height="5" fill="black"/>
<rect x="31.2539" y="71" width="95" height="29" rx="7" fill="black"/>
<rect x="30.8906" y="110.279" width="37.4957" height="4.68696" rx="2" fill="black"/>
<rect x="30.8906" y="121" width="87" height="4" rx="2" fill="black"/>
<rect x="30.8906" y="131" width="86" height="5" rx="2" fill="black"/>
<rect x="30.8906" y="142" width="75" height="4" rx="2" fill="black"/>
<rect x="103.16" y="154.198" width="17.1855" height="4.68696" rx="2" fill="black"/>
<rect x="144.758" y="71.5557" width="14.5684" height="80.8797" rx="5" transform="rotate(26.0082 144.758 71.5557)" fill="black"/>
<path d="M110.134 144.466C110.073 143.695 110.872 143.149 111.568 143.487L121.518 148.322C122.208 148.658 122.279 149.614 121.644 150.047L112.572 156.24C111.938 156.673 111.073 156.259 111.012 155.494L110.134 144.466Z" fill="black"/>
</svg>
