<svg width="20" height="22" viewBox="0 0 20 22" fill="none" xmlns="http://www.w3.org/2000/svg">
<path d="M7.80704 18.2979C7.80643 17.7076 8.00056 17.1335 8.35935 16.6647C8.71813 16.1959 9.22153 15.8586 9.79152 15.7049C10.3615 15.5513 10.9663 15.59 11.5121 15.8149C12.0579 16.0399 12.5142 16.4386 12.8104 16.9493C14.85 16.0495 15.6141 14.6374 15.6141 11.9537V9.02611C15.6141 5.13039 13.4174 2.43892 10.0028 2.43892C6.58816 2.43892 4.39146 5.13137 4.39146 9.02611V12.4417C4.3912 12.6357 4.31401 12.8217 4.1768 12.9589C4.0396 13.0961 3.85358 13.1733 3.65955 13.1736H2.68367C1.97232 13.1728 1.29032 12.89 0.787229 12.3871C0.284139 11.8841 0.00103314 11.2022 0 10.4909L0 9.51502C0.00077442 8.80342 0.283735 8.12116 0.786825 7.61789C1.28991 7.11462 1.97206 6.83141 2.68367 6.83038H3.15014C3.88888 3.34551 6.41739 0.975098 10.0028 0.975098C13.5882 0.975098 16.1157 3.34551 16.8544 6.83038H17.3209C18.0323 6.83141 18.7143 7.11448 19.2174 7.61754C19.7205 8.12061 20.0035 8.80261 20.0046 9.51405V10.4899C20.0038 11.2014 19.7208 11.8836 19.2177 12.3867C18.7146 12.8898 18.0324 13.1728 17.3209 13.1736H17.0193C16.9817 14.3294 16.5939 15.4466 15.9073 16.3772C15.2207 17.3077 14.2677 18.0078 13.1744 18.3848C13.1629 19.0965 12.8691 19.7746 12.3576 20.2697C11.8462 20.7649 11.159 21.0366 10.4473 21.025C9.73553 21.0135 9.0575 20.7197 8.56236 20.2083C8.06722 19.6969 7.79552 19.0097 7.80704 18.2979ZM9.27086 18.2979C9.27086 18.5392 9.3424 18.775 9.47644 18.9757C9.61048 19.1763 9.80099 19.3326 10.0239 19.4249C10.2468 19.5173 10.4921 19.5414 10.7287 19.4944C10.9653 19.4473 11.1827 19.3311 11.3533 19.1605C11.5239 18.9899 11.6401 18.7725 11.6871 18.5359C11.7342 18.2993 11.71 18.054 11.6177 17.8311C11.5254 17.6082 11.369 17.4177 11.1684 17.2837C10.9678 17.1496 10.732 17.0781 10.4907 17.0781C10.1673 17.0783 9.85714 17.2069 9.62843 17.4357C9.39972 17.6644 9.27112 17.9745 9.27086 18.2979ZM17.0779 11.7108H17.3209C17.6445 11.7108 17.9549 11.5823 18.1838 11.3535C18.4127 11.1248 18.5415 10.8145 18.5417 10.4909V9.51502C18.5417 9.19141 18.4132 8.88103 18.1845 8.65211C17.9558 8.42319 17.6455 8.29445 17.3219 8.2942H17.0779V11.7108ZM1.46382 9.51502V10.4909C1.46434 10.8142 1.59305 11.124 1.82174 11.3525C2.05042 11.581 2.36039 11.7095 2.68367 11.7098H2.92764V8.2942H2.68367C2.36006 8.29445 2.04978 8.42319 1.82105 8.65211C1.59231 8.88103 1.46382 9.19141 1.46382 9.51502Z" fill="#A8A8A8"/>
</svg>
