<svg width="128" height="29" viewBox="0 0 128 29" fill="none" xmlns="http://www.w3.org/2000/svg">
<path d="M20.4083 3.39726V28H15.4736V17.5315H4.93465V28H0V3.39726H4.93465V13.5133H15.4736V3.39726H20.4083Z" fill="white"/>
<path d="M43.4177 17.8135C43.4177 18.5184 43.3707 19.1529 43.2767 19.7168H29.0015C29.119 21.1267 29.6125 22.2312 30.4819 23.0301C31.3513 23.829 32.4205 24.2285 33.6894 24.2285C35.5223 24.2285 36.8265 23.4413 37.6019 21.8669H42.9243C42.3603 23.7468 41.2794 25.2977 39.6815 26.5196C38.0836 27.718 36.1215 28.3172 33.7952 28.3172C31.9153 28.3172 30.2234 27.906 28.7195 27.0836C27.2391 26.2376 26.076 25.051 25.23 23.5236C24.4076 21.9962 23.9964 20.2338 23.9964 18.2364C23.9964 16.2156 24.4076 14.4415 25.23 12.9141C26.0525 11.3867 27.2039 10.2118 28.6843 9.38933C30.1647 8.56689 31.8683 8.15567 33.7952 8.15567C35.6515 8.15567 37.3082 8.55514 38.7651 9.35408C40.2455 10.153 41.3851 11.2927 42.1841 12.7731C43.0065 14.23 43.4177 15.9101 43.4177 17.8135ZM38.3068 16.4036C38.2833 15.1347 37.8251 14.1242 36.9322 13.3723C36.0393 12.5969 34.9466 12.2091 33.6542 12.2091C32.4323 12.2091 31.3983 12.5851 30.5524 13.3371C29.73 14.0655 29.2247 15.0877 29.0368 16.4036H38.3068Z" fill="white"/>
<path d="M51.9542 1.91687V28H47.0196V1.91687H51.9542Z" fill="white"/>
<path d="M74.9821 17.8135C74.9821 18.5184 74.9351 19.1529 74.8411 19.7168H60.5659C60.6834 21.1267 61.1769 22.2312 62.0463 23.0301C62.9157 23.829 63.9849 24.2285 65.2538 24.2285C67.0867 24.2285 68.3908 23.4413 69.1663 21.8669H74.4887C73.9247 23.7468 72.8438 25.2977 71.2459 26.5196C69.648 27.718 67.6859 28.3172 65.3596 28.3172C63.4797 28.3172 61.7878 27.906 60.2839 27.0836C58.8035 26.2376 57.6404 25.051 56.7944 23.5236C55.972 21.9962 55.5608 20.2338 55.5608 18.2364C55.5608 16.2156 55.972 14.4415 56.7944 12.9141C57.6169 11.3867 58.7683 10.2118 60.2487 9.38933C61.7291 8.56689 63.4327 8.15567 65.3596 8.15567C67.2159 8.15567 68.8726 8.55514 70.3295 9.35408C71.8098 10.153 72.9495 11.2927 73.7485 12.7731C74.5709 14.23 74.9821 15.9101 74.9821 17.8135ZM69.8712 16.4036C69.8477 15.1347 69.3895 14.1242 68.4966 13.3723C67.6036 12.5969 66.511 12.2091 65.2186 12.2091C63.9967 12.2091 62.9627 12.5851 62.1168 13.3371C61.2943 14.0655 60.7891 15.0877 60.6012 16.4036H69.8712Z" fill="white"/>
<path d="M90.1451 28L83.5186 19.6816V28H78.584V1.91687H83.5186V16.7561L90.0746 8.4729H96.4897L87.8893 18.2717L96.5602 28H90.1451Z" fill="white"/>
<path d="M101.671 6.14657C100.801 6.14657 100.073 5.87634 99.4852 5.33587C98.9212 4.77191 98.6392 4.07871 98.6392 3.25627C98.6392 2.43383 98.9212 1.75238 99.4852 1.21192C100.073 0.647958 100.801 0.365978 101.671 0.365978C102.54 0.365978 103.257 0.647958 103.821 1.21192C104.408 1.75238 104.702 2.43383 104.702 3.25627C104.702 4.07871 104.408 4.77191 103.821 5.33587C103.257 5.87634 102.54 6.14657 101.671 6.14657ZM104.103 8.4729V28H99.1679V8.4729H104.103Z" fill="url(#paint0_linear_2833_69)"/>
<path d="M119.799 8.19092C122.125 8.19092 124.005 8.93112 125.439 10.4115C126.872 11.8684 127.589 13.9128 127.589 16.5446V28H122.654V17.2143C122.654 15.6634 122.266 14.4767 121.491 13.6543C120.715 12.8083 119.658 12.3854 118.319 12.3854C116.956 12.3854 115.875 12.8083 115.076 13.6543C114.3 14.4767 113.913 15.6634 113.913 17.2143V28H108.978V8.4729H113.913V10.905C114.571 10.059 115.405 9.40108 116.415 8.93112C117.449 8.43765 118.577 8.19092 119.799 8.19092Z" fill="white"/>
<path d="M105.209 3.5C105.209 5.433 103.642 7 101.709 7C99.7756 7 98.2086 5.433 98.2086 3.5C98.2086 1.567 99.7756 0 101.709 0C103.642 0 105.209 1.567 105.209 3.5Z" fill="#BE1133"/>
<defs>
<linearGradient id="paint0_linear_2833_69" x1="64.4954" y1="8.65249" x2="64.4954" y2="9.83237" gradientUnits="userSpaceOnUse">
<stop offset="1" stop-color="white"/>
</linearGradient>
</defs>
</svg>
