<svg width="26" height="26" viewBox="0 0 26 26" fill="none" xmlns="http://www.w3.org/2000/svg">
<path d="M12.9736 2.1669C12.8003 2.17281 12.6335 2.23398 12.4975 2.34146L4.79883 8.40664C3.82172 9.17669 3.25 10.3534 3.25 11.5974V21.9377C3.25 22.6763 3.86555 23.2919 4.60417 23.2919H10.0208C10.7594 23.2919 11.375 22.6763 11.375 21.9377V16.5211C11.375 16.3612 11.486 16.2502 11.6458 16.2502H14.3542C14.514 16.2502 14.625 16.3612 14.625 16.5211V21.9377C14.625 22.6763 15.2406 23.2919 15.9792 23.2919H21.3958C22.1344 23.2919 22.75 22.6763 22.75 21.9377V11.5974C22.75 10.3534 22.1783 9.17669 21.2012 8.40664L13.5025 2.34146C13.3523 2.22277 13.1649 2.16094 12.9736 2.1669ZM13 4.01406L20.1961 9.68358C20.7833 10.1464 21.125 10.8503 21.125 11.5974V21.6669H16.25V16.5211C16.25 15.4838 15.3914 14.6252 14.3542 14.6252H11.6458C10.6086 14.6252 9.75 15.4838 9.75 16.5211V21.6669H4.875V11.5974C4.875 10.8503 5.21665 10.1464 5.80387 9.68358L13 4.01406Z" fill="white" fill-opacity="0.62"/>
</svg>
