<svg width="128" height="106" viewBox="0 0 128 106" fill="none" xmlns="http://www.w3.org/2000/svg">
<path d="M83 3H87V100H83C79.6863 100 77 97.3137 77 94V9C77 5.68629 79.6863 3 83 3Z" stroke="white" stroke-width="4"/>
<path d="M18.5127 34H28V68H19.4873C9.8294 68 2 60.1706 2 50.5127C2.00007 41.393 9.39302 34.0001 18.5127 34Z" stroke="white" stroke-width="4"/>
<rect x="28" y="34" width="8" height="34" stroke="white" stroke-width="4"/>
<rect x="128" y="49" width="4" height="16" rx="2" transform="rotate(90 128 49)" fill="white"/>
<rect x="119.293" y="37" width="4" height="16" rx="2" transform="rotate(72.8949 119.293 37)" fill="white"/>
<rect width="4" height="16" rx="2" transform="matrix(0.294125 -0.955767 -0.955767 -0.294125 118.293 66.5293)" fill="white"/>
<rect x="120.613" y="22" width="4" height="16" rx="2" transform="rotate(65.9531 120.613 22)" fill="white"/>
<rect width="4" height="16" rx="2" transform="matrix(0.407485 -0.913212 -0.913212 -0.407485 120.613 81.1729)" fill="white"/>
<rect x="104.438" y="16" width="4" height="16" rx="2" transform="rotate(45.6294 104.438 16)" fill="white"/>
<rect width="4" height="16" rx="2" transform="matrix(0.699297 -0.714832 -0.714832 -0.699297 104.438 87.0479)" fill="white"/>
<path d="M16.8468 69.1611C23.5266 66.4309 31.3627 68.9854 35.0717 75.4092L43.9091 90.716C45.6569 93.7435 44.6203 97.6146 41.593 99.3626C38.5655 101.111 34.6939 100.073 32.9459 97.0456L16.8468 69.1611Z" stroke="white" stroke-width="4"/>
<rect x="11.5" y="42.5" width="10" height="2" rx="1" fill="white" stroke="white"/>
<rect x="8.5" y="48.5" width="13" height="3" rx="1.5" fill="white" stroke="white"/>
<rect x="11.5" y="56.5" width="10" height="2" rx="1" fill="white" stroke="white"/>
<mask id="path-15-inside-1_255_115" fill="white">
<path d="M88.5 64C90.2728 64 92.0283 63.6508 93.6662 62.9724C95.3041 62.2939 96.7924 61.2995 98.0459 60.0459C99.2995 58.7924 100.294 57.3041 100.972 55.6662C101.651 54.0283 102 52.2728 102 50.5C102 48.7272 101.651 46.9717 100.972 45.3338C100.294 43.6959 99.2995 42.2076 98.0459 40.9541C96.7924 39.7005 95.3041 38.7061 93.6662 38.0276C92.0283 37.3492 90.2728 37 88.5 37L88.5 41.4207C89.6923 41.4207 90.873 41.6555 91.9745 42.1118C93.0761 42.5681 94.077 43.2369 94.92 44.0799C95.7631 44.923 96.4319 45.9239 96.8882 47.0255C97.3445 48.127 97.5793 49.3077 97.5793 50.5C97.5793 51.6923 97.3445 52.873 96.8882 53.9745C96.4319 55.0761 95.7631 56.077 94.92 56.9201C94.077 57.7631 93.0761 58.4319 91.9745 58.8882C90.873 59.3445 89.6923 59.5793 88.5 59.5793L88.5 64Z"/>
</mask>
<path d="M88.5 64C90.2728 64 92.0283 63.6508 93.6662 62.9724C95.3041 62.2939 96.7924 61.2995 98.0459 60.0459C99.2995 58.7924 100.294 57.3041 100.972 55.6662C101.651 54.0283 102 52.2728 102 50.5C102 48.7272 101.651 46.9717 100.972 45.3338C100.294 43.6959 99.2995 42.2076 98.0459 40.9541C96.7924 39.7005 95.3041 38.7061 93.6662 38.0276C92.0283 37.3492 90.2728 37 88.5 37L88.5 41.4207C89.6923 41.4207 90.873 41.6555 91.9745 42.1118C93.0761 42.5681 94.077 43.2369 94.92 44.0799C95.7631 44.923 96.4319 45.9239 96.8882 47.0255C97.3445 48.127 97.5793 49.3077 97.5793 50.5C97.5793 51.6923 97.3445 52.873 96.8882 53.9745C96.4319 55.0761 95.7631 56.077 94.92 56.9201C94.077 57.7631 93.0761 58.4319 91.9745 58.8882C90.873 59.3445 89.6923 59.5793 88.5 59.5793L88.5 64Z" fill="white" stroke="white" stroke-width="2" mask="url(#path-15-inside-1_255_115)"/>
<path d="M48 68C63 68 65.5 101 87 101V2.5C65 2.5 64.0789 34.069 47.5 34.069H35.5V68H48Z" stroke="white" stroke-width="4"/>
</svg>
