<svg width="144" height="166" viewBox="0 0 144 166" fill="none" xmlns="http://www.w3.org/2000/svg">
<rect x="121.645" y="47.1211" width="16.8035" height="93.2885" rx="5" transform="rotate(25.4479 121.645 47.1211)" fill="white"/>
<path d="M82.5128 131.337C82.4439 130.566 83.2381 130.013 83.937 130.344L95.9489 136.036C96.6429 136.365 96.7225 137.321 96.0925 137.76L85.2649 145.307C84.6349 145.746 83.7655 145.341 83.6971 144.576L82.5128 131.337Z" fill="white"/>
<path d="M100.089 50.6035C100.098 50.6261 100.105 50.6585 100.105 50.7021V113.068C100.105 113.112 100.098 113.144 100.089 113.167H17.7197C17.711 113.144 17.7031 113.112 17.7031 113.068V50.7021C17.7031 50.6585 17.7109 50.6261 17.7197 50.6035H100.089Z" stroke="white" stroke-width="5"/>
<path d="M20.1953 110.285L46.7385 78.9134C46.9967 78.6083 47.4362 78.5892 47.7162 78.871L56.1542 87.3615M56.1542 87.3615L65.101 96.3638M56.1542 87.3615L69.8205 69.2917C70.0635 68.9704 70.5033 68.9261 70.7972 69.1933L97.6189 93.5796" stroke="white" stroke-width="5" stroke-linecap="round"/>
<path d="M44.7958 65.5524C44.7958 70.883 40.7902 75.2043 35.8491 75.2043C30.9079 75.2043 26.9023 70.883 26.9023 65.5524C26.9023 60.2217 30.9079 55.9004 35.8491 55.9004C40.7902 55.9004 44.7958 60.2217 44.7958 65.5524ZM31.6415 65.5524C31.6415 68.0593 33.5253 70.0916 35.8491 70.0916C38.1728 70.0916 40.0566 68.0593 40.0566 65.5524C40.0566 63.0454 38.1728 61.0131 35.8491 61.0131C33.5253 61.0131 31.6415 63.0454 31.6415 65.5524Z" fill="white"/>
<rect x="16.2344" y="121.979" width="66.4122" height="5.56845" rx="2.78422" fill="white"/>
<rect x="16.2344" y="133.858" width="66.4122" height="5.56845" rx="2.78422" fill="white"/>
<rect x="16.2344" y="145.737" width="37.5074" height="5.56845" rx="2.78422" fill="white"/>
<path d="M2.90234 161V40.3684C2.90234 39.2639 3.79778 38.3684 4.90235 38.3684H31.3091C32.4137 38.3684 33.3091 37.473 33.3091 36.3684V5C33.3091 3.89543 34.2045 3 35.3091 3H113.425C114.529 3 115.425 3.89543 115.425 5V161C115.425 162.105 114.529 163 113.425 163H4.90234C3.79777 163 2.90234 162.105 2.90234 161Z" stroke="white" stroke-width="5" stroke-linecap="round"/>
<path d="M33.4288 3.18522L2.98851 38.8237" stroke="white" stroke-width="5" stroke-linecap="round"/>
</svg>
