<svg width="22" height="22" viewBox="0 0 22 22" fill="none" xmlns="http://www.w3.org/2000/svg">
<path d="M0.439941 1.31982V6.59982H1.31994V21.1198H20.6799V6.59982H21.5599V1.31982H0.439941ZM1.31994 2.19982H20.6799V5.71982H1.31994V2.19982ZM2.19994 6.59982H19.7999V20.2398H2.19994V6.59982ZM7.69994 8.35982C6.85432 8.35982 6.15994 9.0542 6.15994 9.89982C6.15994 10.7454 6.85432 11.4398 7.69994 11.4398H14.2999C15.1456 11.4398 15.8399 10.7454 15.8399 9.89982C15.8399 9.0542 15.1456 8.35982 14.2999 8.35982H7.69994ZM7.69994 9.23982H14.2999C14.6695 9.23982 14.9599 9.53029 14.9599 9.89982C14.9599 10.2694 14.6695 10.5598 14.2999 10.5598H7.69994C7.33041 10.5598 7.03994 10.2694 7.03994 9.89982C7.03994 9.53029 7.33041 9.23982 7.69994 9.23982Z" fill="#A8A8A8"/>
</svg>
