<svg width="123" height="124" viewBox="0 0 123 124" fill="none" xmlns="http://www.w3.org/2000/svg">
<path d="M95.5 107.5L75.134 118.29L68.4948 110.718H56.8763L50.2371 119L35.5361 113.558V102.673L27 95.8107L16.3299 97.9403L8.26804 84.6893L15.1443 76.4074L13.4845 66.2325L4 60.3169L5.65979 43.9897L16.3299 42.8066L21.5464 33.1049L17.9897 23.1667L29.8454 12.2819L38.3814 17.4877L48.5773 13.7016L52.134 4H67.7835L71.3402 13.7016L82.0103 16.7778L91.0206 11.0988L103.351 21.7469L99.5567 31.4486L105.485 41.1502L116.392 41.8601L119 57.9506L109.753 63.393L109.041 74.751L115.68 82.5597L104.5 99" stroke="white" stroke-width="7"/>
<mask id="path-2-inside-1_255_116" fill="white">
<path d="M94 62C94 80.2254 79.6731 95 62 95C44.3269 95 30 80.2254 30 62C30 43.7746 44.3269 29 62 29C79.6731 29 94 43.7746 94 62ZM42.3747 62C42.3747 73.1775 51.1612 82.2386 62 82.2386C72.8388 82.2386 81.6253 73.1775 81.6253 62C81.6253 50.8225 72.8388 41.7614 62 41.7614C51.1612 41.7614 42.3747 50.8225 42.3747 62Z"/>
</mask>
<path d="M94 62C94 80.2254 79.6731 95 62 95C44.3269 95 30 80.2254 30 62C30 43.7746 44.3269 29 62 29C79.6731 29 94 43.7746 94 62ZM42.3747 62C42.3747 73.1775 51.1612 82.2386 62 82.2386C72.8388 82.2386 81.6253 73.1775 81.6253 62C81.6253 50.8225 72.8388 41.7614 62 41.7614C51.1612 41.7614 42.3747 50.8225 42.3747 62Z" fill="white" stroke="white" stroke-width="2" mask="url(#path-2-inside-1_255_116)"/>
<path d="M81.9003 83.6156C83.1203 82.4946 85.0227 82.5708 86.1493 83.7856L89.9159 87.8471C92.7253 87.1265 95.8331 87.9274 97.9393 90.1987L114.558 108.119C117.608 111.408 117.403 116.535 114.1 119.571C110.796 122.606 105.644 122.4 102.594 119.111L85.9755 101.191C83.8242 98.8708 83.2939 95.6373 84.3261 92.8676L80.6181 88.8686C79.4915 87.6538 79.5673 85.7602 80.787 84.6391L81.9003 83.6156Z" fill="white"/>
</svg>
