<svg width="25" height="26" viewBox="0 0 25 26" fill="none" xmlns="http://www.w3.org/2000/svg">
<path d="M17.7084 2.58398C17.2639 2.58398 16.8197 2.63789 16.3687 2.74674C16.0447 2.82435 15.8049 3.10011 15.7726 3.43136L15.7512 3.65108C15.7267 3.9016 15.5829 4.12624 15.3647 4.25228C15.1464 4.3778 14.8797 4.39207 14.6516 4.28687L14.4491 4.19531C14.1476 4.05833 13.7882 4.12658 13.559 4.36825C12.9351 5.0245 12.4694 5.82714 12.2153 6.6886C12.1205 7.00787 12.2399 7.35138 12.5113 7.54513L12.6934 7.67533C12.898 7.82273 13.0209 8.06057 13.0209 8.31213C13.0209 8.44547 12.9847 8.57396 12.9222 8.6875L13.0199 9.28971L13.7716 9.00488C13.9779 8.92728 14.1937 8.8879 14.4135 8.8879C14.4422 8.8879 14.4703 8.89549 14.499 8.89705C14.549 8.70695 14.5834 8.51266 14.5834 8.31213C14.5834 7.68401 14.3297 7.08538 13.8907 6.64893C14.0157 6.36299 14.1742 6.09078 14.3606 5.83818C14.9575 6.00015 15.6022 5.9203 16.1459 5.60624C16.6897 5.29218 17.0821 4.77239 17.2405 4.17395C17.5577 4.13645 17.8597 4.13645 18.1774 4.17395C18.3352 4.77239 18.7266 5.29218 19.2709 5.60624C19.8141 5.92083 20.4583 6.00015 21.0562 5.83818C21.2427 6.09026 21.4012 6.36299 21.5262 6.64893C21.0871 7.08591 20.8334 7.68401 20.8334 8.31213C20.8334 8.94026 21.0871 9.53888 21.5262 9.97534C21.4012 10.2613 21.2427 10.5335 21.0562 10.7861C20.4593 10.6241 19.8147 10.704 19.2709 11.018C18.7266 11.3321 18.3347 11.8519 18.1764 12.4503C17.9972 12.4717 17.8234 12.4773 17.6484 12.4747C17.7375 12.7091 17.8192 12.9452 17.8875 13.1858C17.9666 13.4655 17.9736 13.7536 17.921 14.0281C18.2924 14.0135 18.67 13.9687 19.0492 13.8775C19.3726 13.7999 19.612 13.5242 19.6442 13.1929L19.6656 12.9722C19.6901 12.7216 19.8339 12.498 20.0522 12.372C20.2709 12.247 20.5377 12.2332 20.7653 12.3374L20.9677 12.429C21.2693 12.567 21.6291 12.4982 21.8578 12.256C22.4817 11.5998 22.9474 10.7971 23.2016 9.93567C23.2964 9.61588 23.1769 9.27237 22.9056 9.07914L22.7235 8.94893C22.5188 8.80154 22.3959 8.5637 22.3959 8.31213C22.3959 8.06057 22.5183 7.82323 22.7225 7.67635L22.9056 7.54513C23.1769 7.3519 23.2964 7.00839 23.2016 6.6886C22.9474 5.82714 22.4817 5.0245 21.8578 4.36825C21.6286 4.12606 21.2687 4.05729 20.9677 4.19531L20.7663 4.28687C20.5361 4.39103 20.2699 4.37676 20.0522 4.25228C19.8339 4.12624 19.6901 3.9021 19.6656 3.6521L19.6442 3.43136C19.612 3.09959 19.3721 2.82435 19.0481 2.74674C18.5971 2.63789 18.1529 2.58398 17.7084 2.58398ZM17.7084 6.2288C17.0791 6.2288 16.5081 6.49293 16.148 6.89815C15.7878 7.30337 15.6251 7.813 15.6251 8.31213C15.6251 8.81127 15.7878 9.3209 16.148 9.72612C16.5081 10.1313 17.0791 10.3955 17.7084 10.3955C18.3378 10.3955 18.9087 10.1313 19.2689 9.72612C19.6291 9.3209 19.7917 8.81127 19.7917 8.31213C19.7917 7.813 19.6291 7.30337 19.2689 6.89815C18.9087 6.49293 18.3378 6.2288 17.7084 6.2288ZM9.37508 7.7913C8.7096 7.7913 8.07167 7.88301 7.46773 8.03442C7.31983 8.07155 7.18603 8.15115 7.08282 8.2634C6.9796 8.37565 6.91149 8.51565 6.88688 8.66614L6.75769 9.45654C6.70692 9.76594 6.52111 10.0345 6.25008 10.191C5.97905 10.3475 5.65488 10.3741 5.361 10.2632L4.60926 9.97839C4.46666 9.92453 4.31143 9.91355 4.16267 9.94681C4.01391 9.98006 3.87813 10.0561 3.77206 10.1656C2.88507 11.0798 2.22178 12.2102 1.86471 13.4706C1.82321 13.6172 1.82546 13.7727 1.87118 13.918C1.91691 14.0633 2.00411 14.1921 2.12207 14.2885L2.74361 14.7971C2.98535 14.9962 3.12508 15.291 3.12508 15.6038C3.12508 15.917 2.98484 16.2121 2.7426 16.4105L2.12106 16.9191C2.00328 17.0156 1.91627 17.1445 1.87073 17.2898C1.82518 17.4351 1.82309 17.5905 1.86471 17.737C2.22223 18.997 2.88495 20.1277 3.77206 21.042C3.87816 21.1511 4.01382 21.2269 4.16236 21.2599C4.31091 21.293 4.46587 21.282 4.60824 21.2282L5.361 20.9444C5.65404 20.8337 5.97821 20.8598 6.25008 21.0166C6.52154 21.1732 6.70629 21.4412 6.75668 21.75L6.88587 22.5404C6.91048 22.6909 6.97859 22.8309 7.0818 22.9432C7.18501 23.0554 7.31882 23.135 7.46672 23.1722C8.07145 23.3242 8.7096 23.4163 9.37508 23.4163C10.0406 23.4163 10.6785 23.3246 11.2824 23.1732C11.4303 23.1361 11.5641 23.0565 11.6673 22.9442C11.7706 22.832 11.8387 22.692 11.8633 22.5415L11.9925 21.7511C12.0432 21.4417 12.2291 21.1731 12.5001 21.0166C12.7711 20.8601 13.0953 20.8335 13.3892 20.9444L14.1409 21.2292C14.2835 21.2831 14.4387 21.2941 14.5875 21.2608C14.7363 21.2275 14.872 21.1515 14.9781 21.042C15.8651 20.1279 16.5284 18.9974 16.8855 17.737C16.927 17.5904 16.9247 17.4349 16.879 17.2896C16.8333 17.1443 16.7461 17.0155 16.6281 16.9191L16.0066 16.4105C15.7648 16.2114 15.6251 15.9166 15.6251 15.6038C15.6251 15.2906 15.7653 14.9955 16.0076 14.7971L16.6291 14.2885C16.7469 14.192 16.8339 14.0631 16.8794 13.9178C16.925 13.7725 16.9271 13.6171 16.8855 13.4706C16.5279 12.2089 15.8607 11.0806 14.9761 10.1676C14.87 10.0581 14.7342 9.9821 14.5855 9.94884C14.4367 9.91558 14.2815 9.92656 14.1389 9.98043L13.3892 10.2632C13.0961 10.3739 12.7709 10.3478 12.4991 10.191C12.2276 10.0344 12.0429 9.76642 11.9925 9.45756L11.8612 8.65902C11.8367 8.50866 11.7688 8.36875 11.6657 8.25651C11.5627 8.14427 11.4291 8.0646 11.2814 8.0273C10.6719 7.87406 10.0328 7.7913 9.37508 7.7913ZM17.7084 7.7913C17.9471 7.7913 18.0272 7.85269 18.1011 7.93575C18.1749 8.01881 18.2292 8.16022 18.2292 8.31213C18.2292 8.46404 18.1749 8.60546 18.1011 8.68852C18.0272 8.77158 17.9471 8.83297 17.7084 8.83297C17.4697 8.83297 17.3896 8.77158 17.3158 8.68852C17.2419 8.60546 17.1876 8.46404 17.1876 8.31213C17.1876 8.16022 17.2419 8.01881 17.3158 7.93575C17.3896 7.85269 17.4697 7.7913 17.7084 7.7913ZM9.37508 9.3538C9.73383 9.3538 10.072 9.42462 10.4137 9.48299L10.4503 9.70984C10.5762 10.4797 11.0427 11.1549 11.7188 11.545C12.3949 11.935 13.2116 12.0008 13.9415 11.725L14.1501 11.6467C14.5941 12.1822 14.9442 12.7849 15.1907 13.4472L15.0178 13.5886H15.0168C14.4132 14.0829 14.0626 14.8233 14.0626 15.6038C14.0626 16.3843 14.4134 17.1243 15.0157 17.619L15.0168 17.62L15.1907 17.7624C14.9446 18.4253 14.5951 19.0283 14.1521 19.5629L13.9415 19.4826C13.2114 19.207 12.3937 19.2733 11.7178 19.6637C11.042 20.054 10.5766 20.728 10.4503 21.4978V21.4988L10.4137 21.7205C10.0706 21.7809 9.73016 21.8538 9.37508 21.8538C9.01967 21.8538 8.67889 21.7812 8.33545 21.7205L8.29883 21.4988V21.4978C8.17294 20.7279 7.70751 20.0527 7.03133 19.6626C6.35529 19.2726 5.53852 19.2068 4.80864 19.4826L4.59705 19.5619C4.15416 19.0272 3.80469 18.4247 3.55843 17.7614L3.73238 17.619H3.7334C4.33699 17.1247 4.68758 16.3843 4.68758 15.6038C4.68758 14.8233 4.3368 14.0833 3.73442 13.5886L3.7334 13.5876L3.55945 13.4452C3.80559 12.7823 4.15504 12.1793 4.59807 11.6447L4.80864 11.725C5.53872 12.0006 6.35651 11.9343 7.03235 11.5439C7.7082 11.1536 8.17353 10.4796 8.29985 9.70984V9.70882L8.33647 9.48706C8.67957 9.42664 9.02001 9.3538 9.37508 9.3538ZM9.37508 12.4788C8.39852 12.4788 7.56717 12.8731 7.03337 13.4737C6.49956 14.0742 6.25008 14.8443 6.25008 15.6038C6.25008 16.3633 6.49956 17.1334 7.03337 17.7339C7.56717 18.3345 8.39852 18.7288 9.37508 18.7288C10.3516 18.7288 11.183 18.3345 11.7168 17.7339C12.2506 17.1334 12.5001 16.3633 12.5001 15.6038C12.5001 14.8443 12.2506 14.0742 11.7168 13.4737C11.183 12.8731 10.3516 12.4788 9.37508 12.4788ZM9.37508 14.0413C9.96102 14.0413 10.3016 14.2329 10.549 14.5113C10.7964 14.7896 10.9376 15.1915 10.9376 15.6038C10.9376 16.0161 10.7964 16.418 10.549 16.6963C10.3016 16.9747 9.96102 17.1663 9.37508 17.1663C8.78915 17.1663 8.44862 16.9747 8.20117 16.6963C7.95373 16.418 7.81258 16.0161 7.81258 15.6038C7.81258 15.1915 7.95373 14.7896 8.20117 14.5113C8.44862 14.2329 8.78915 14.0413 9.37508 14.0413Z" fill="#A8A8A8"/>
</svg>
