<svg width="168" height="142" viewBox="0 0 168 142" fill="none" xmlns="http://www.w3.org/2000/svg">
<rect x="2.5" y="2.5" width="163" height="137" rx="14.5" stroke="#FFFDFD" stroke-width="5"/>
<path d="M4 26H164" stroke="#FFFDFD" stroke-width="5"/>
<path d="M119.541 77.2561L129.738 67.1768M111.805 74.8232V59.878M104.421 78.6463L92.818 67.1768M101.257 85.9451H85.0823M104.421 92.5488L92.818 104.018M14.7581 90.4634V128H113.212M85.0823 37.6341H154V87.6829M13 14H22.4938M30.581 14H40.7781M49.217 14H58.3591M111.805 85.9451L124.464 123.482L132.903 116.183L145.913 128L154 120.006L141.693 107.494L149.781 99.1524L111.805 85.9451ZM26.7132 99.1524V116.183H81.2145V99.1524H26.7132Z" stroke="#FFFDFD" stroke-width="5" stroke-linecap="round"/>
<mask id="path-4-inside-1_255_117" fill="white">
<path d="M65 68.5C65 78.7173 56.7173 87 46.5 87C36.2827 87 28 78.7173 28 68.5C28 58.2827 36.2827 50 46.5 50C56.7173 50 65 58.2827 65 68.5ZM33.8347 68.5C33.8347 75.4948 39.5052 81.1653 46.5 81.1653C53.4948 81.1653 59.1653 75.4948 59.1653 68.5C59.1653 61.5052 53.4948 55.8347 46.5 55.8347C39.5052 55.8347 33.8347 61.5052 33.8347 68.5Z"/>
</mask>
<path d="M65 68.5C65 78.7173 56.7173 87 46.5 87C36.2827 87 28 78.7173 28 68.5C28 58.2827 36.2827 50 46.5 50C56.7173 50 65 58.2827 65 68.5ZM33.8347 68.5C33.8347 75.4948 39.5052 81.1653 46.5 81.1653C53.4948 81.1653 59.1653 75.4948 59.1653 68.5C59.1653 61.5052 53.4948 55.8347 46.5 55.8347C39.5052 55.8347 33.8347 61.5052 33.8347 68.5Z" fill="black" stroke="#FFFDFD" stroke-width="10" mask="url(#path-4-inside-1_255_117)"/>
<path d="M15 57V37H40" stroke="#FFFDFD" stroke-width="5" stroke-linecap="round"/>
</svg>
